<?xml version="1.0" encoding="utf-8"?>
<!-- Generator: Adobe Illustrator 28.0.0, SVG Export Plug-In . SVG Version: 6.00 Build 0)  -->
<svg version="1.1" id="Livello_1" xmlns="http://www.w3.org/2000/svg" xmlns:xlink="http://www.w3.org/1999/xlink" x="0px" y="0px"
	 viewBox="0 0 162.7 162.7" style="enable-background:new 0 0 162.7 162.7;" xml:space="preserve">
<style type="text/css">
	.st0{fill:#FFFFFF;}
	.st1{fill:#F9D8D9;stroke:#3B3C3C;stroke-width:5.6693;stroke-linecap:round;stroke-miterlimit:10;}
	.st2{fill:#FBE6E7;stroke:#3B3C3C;stroke-width:5.6693;stroke-linecap:round;stroke-miterlimit:10;}
	.st3{fill:#FBE6E7;stroke:#3B3C3C;stroke-width:2.8346;stroke-linecap:round;stroke-miterlimit:10;}
	.st4{fill:#54494B;stroke:#3B3C3C;stroke-width:5.6693;stroke-linecap:round;stroke-miterlimit:10;}
	.st5{fill:none;stroke:#3B3C3C;stroke-width:2.8346;stroke-linecap:round;stroke-miterlimit:10;}
	.st6{fill:#68C4DA;}
</style>
<g>
	<g>
		
			<image style="overflow:visible;opacity:0.15;" width="169" height="170" xlink:href="DB2843F263A83455.png"  transform="matrix(1 0 0 1 -3.5039 -0.8039)">
		</image>
		<g>
			<circle class="st0" cx="81.3" cy="81.3" r="75.6"/>
		</g>
	</g>
	<g>
		<g>
			<ellipse class="st1" cx="123.9" cy="95.4" rx="11.9" ry="13.9"/>
			<ellipse class="st2" cx="38.8" cy="95.9" rx="11.9" ry="13.9"/>
		</g>
		<path class="st3" d="M122.7,89L122.7,89l0-17.5c0-20.1-18.5-36.4-41.3-36.4S40.1,51.5,40.1,71.6V89h0c0,2.9,0.4,5.7,1.2,8.4h80.3
			C122.2,94.7,122.6,91.9,122.7,89z"/>
		<path class="st4" d="M81.3,23.5c-25.8,0-46.8,17.8-46.8,39.9v34v22.2c0,4.9,4,8.9,8.9,8.9l17.4,6.9c13.2,5.2,27.9,5.1,41-0.2
			l16.3-6.7c4.9,0,8.9-4,8.9-8.9V97.4V86.8l0.2-15.3c0.6-2.6,1-5.3,1-8.1C128.1,41.4,107.2,23.5,81.3,23.5z M43.5,86.8l0.2-17.1
			c0.7,1.1,3.6,4.9,10.1,4.2c7.5-0.8,15.1-8.9,15.1-8.9s1.8,4.6,6.8,4.6c4.9,0,6.5-4.6,6.5-4.6s0.5,4.3,5.5,4.3
			c5.1,0,7.8-4.3,7.8-4.3S102,74,109.6,74c3.8,0,6.6-1.5,8.5-3v26.4H43.5V86.8z"/>
		<path class="st5" d="M76.4,107.7c0,0,0.1,3.3,5,3.3c4.9,0,4.8-3.3,4.8-3.3"/>
		<path class="st5" d="M58.7,81.6c1.4-3,4.9-5.2,9-5.2c3.3,0,6.2,1.4,7.9,3.6"/>
		<path class="st5" d="M104.1,81.6c-1.4-3-4.9-5.2-9-5.2c-3.3,0-6.2,1.4-7.9,3.6"/>
		<g>
			
				<image style="overflow:visible;" width="51" height="25" xlink:href="DB2843F263A83457.png"  transform="matrix(1 0 0 1 55.4961 76.1961)">
			</image>
			<g>
				<g>
					<circle class="st6" cx="68.9" cy="88.8" r="3.9"/>
					<circle class="st6" cx="93.8" cy="88.8" r="3.9"/>
					<circle class="st0" cx="93.8" cy="88.8" r="1.7"/>
					<circle class="st0" cx="68.9" cy="88.8" r="1.7"/>
				</g>
			</g>
		</g>
	</g>
</g>
</svg>
