<?xml version="1.0" encoding="utf-8"?>
<!-- Generator: Adobe Illustrator 28.1.0, SVG Export Plug-In . SVG Version: 6.00 Build 0)  -->
<svg version="1.1" id="Livello_1" xmlns="http://www.w3.org/2000/svg" xmlns:xlink="http://www.w3.org/1999/xlink" x="0px" y="0px"
	 viewBox="0 0 1179.6 679" style="enable-background:new 0 0 1179.6 679;" xml:space="preserve">
<style type="text/css">
	.st0{fill:#191923;}
	.st1{fill:#96E6B3;}
	.st2{fill:#96E6B3;stroke:#191923;stroke-width:56.6929;stroke-linecap:round;stroke-miterlimit:10;}
	.st3{fill:none;stroke:#191923;stroke-width:45.3543;stroke-linecap:round;stroke-miterlimit:10;}
	.st4{fill:#FFFFFF;}
	.st5{fill:none;stroke:#191923;stroke-width:56.6929;stroke-linecap:round;stroke-miterlimit:10;}
</style>
<rect class="st0" width="1179.6" height="679"/>
<g>
	<path class="st4" d="M506.5,632.8c-17.8,0-34.5-6.9-47.1-19.5L336.8,490.7l-2.5,0.8c-22,7.3-45,11-68.3,11
		c-57.7,0-111.9-22.5-152.7-63.3S50,344.3,50,286.6s22.5-111.9,63.3-152.7c40.8-40.8,95-63.3,152.7-63.3
		c57.7,0,111.9,22.5,152.7,63.3c40.8,40.8,63.3,95,63.3,152.7c0,42.9-12.5,84.3-36.2,119.8l-1.9,2.9l109.8,109.8
		c12.6,12.6,19.5,29.3,19.5,47.1s-6.9,34.5-19.5,47.1C541,625.9,524.3,632.8,506.5,632.8z M266,118.8c-44.8,0-87,17.5-118.6,49.1
		c-31.7,31.7-49.1,73.8-49.1,118.6c0,44.8,17.5,87,49.1,118.6c31.7,31.7,73.8,49.1,118.6,49.1c44.8,0,87-17.5,118.6-49.1
		c31.7-31.7,49.1-73.8,49.1-118.6s-17.5-87-49.1-118.6C353,136.3,310.8,118.8,266,118.8z"/>
	<path class="st0" d="M266,74.9c28.6,0,56.3,5.6,82.4,16.6c25.2,10.7,47.9,25.9,67.3,45.4c19.4,19.4,34.7,42.1,45.4,67.3
		c11,26.1,16.6,53.8,16.6,82.4c0,42-12.3,82.6-35.5,117.4l-3.9,5.8l4.9,4.9l107.3,107.3c24.3,24.3,24.3,63.9,0,88.2
		c-11.8,11.8-27.4,18.3-44.1,18.3s-32.3-6.5-44.1-18.3L341.7,489.6l-3.7-3.7l-5,1.7c-21.5,7.2-44.1,10.8-67,10.8
		c-28.6,0-56.3-5.6-82.4-16.6c-25.2-10.7-47.9-25.9-67.3-45.4c-19.4-19.4-34.7-42.1-45.4-67.3c-11-26.1-16.6-53.8-16.6-82.4
		c0-28.6,5.6-56.3,16.6-82.4c10.7-25.2,25.9-47.9,45.4-67.3c19.4-19.4,42.1-34.7,67.3-45.4C209.7,80.5,237.4,74.9,266,74.9
		 M266,458.7c46,0,89.2-17.9,121.7-50.4c32.5-32.5,50.4-75.7,50.4-121.7c0-46-17.9-89.2-50.4-121.7c-32.5-32.5-75.7-50.4-121.7-50.4
		s-89.2,17.9-121.7,50.4C111.9,197.5,94,240.7,94,286.6c0,46,17.9,89.2,50.4,121.7C176.9,440.8,220.1,458.7,266,458.7 M266,66.4
		C144.4,66.4,45.8,165,45.8,286.6S144.4,506.9,266,506.9c24.3,0,47.8-4,69.7-11.3l120.7,120.7c13.8,13.8,32,20.8,50.1,20.8
		c18.1,0,36.3-6.9,50.1-20.8v0c27.7-27.7,27.7-72.5,0-100.2L449.3,408.8c23.3-35,37-77,37-122.1C486.3,165,387.7,66.4,266,66.4
		L266,66.4z M266,450.2c-43.7,0-84.8-17-115.6-47.9c-30.9-30.9-47.9-72-47.9-115.6c0-43.7,17-84.8,47.9-115.6s72-47.9,115.6-47.9
		s84.8,17,115.6,47.9s47.9,72,47.9,115.6c0,43.7-17,84.8-47.9,115.6C350.8,433.2,309.7,450.2,266,450.2L266,450.2z"/>
</g>
<g>
	<path class="st4" d="M220.4,370.9c-13.8,0-27.6-5.3-38.1-15.8l-37.6-37.6c-10.1-10.1-10.1-26.4,0-36.5c10.1-10.1,26.4-10.1,36.5,0
		l37.6,37.6c0.9,0.9,2.4,0.9,3.3,0l108.8-108.8c10.1-10.1,26.4-10.1,36.5,0c10.1,10.1,10.1,26.4,0,36.5L258.6,355.2
		C248.1,365.7,234.2,370.9,220.4,370.9z"/>
</g>
<g>
	<g>
		<path class="st4" d="M749.9,369.3c-1.5,0-2.8-0.5-3.8-1.6c-1-1.1-1.5-2.3-1.5-3.6c0-0.8,0.1-1.6,0.2-2.2L804.4,201
			c0.5-1.8,1.5-3.4,3-4.8c1.5-1.3,3.6-2,6.2-2h32c2.7,0,4.8,0.7,6.2,2c1.5,1.3,2.5,2.9,3,4.8l59.5,160.8c0.2,0.7,0.2,1.4,0.2,2.2
			c0,1.3-0.5,2.5-1.5,3.6c-1,1.1-2.2,1.6-3.8,1.6h-26c-2.5,0-4.3-0.6-5.5-1.8c-1.2-1.2-1.9-2.2-2.2-3.2l-10.8-28h-70.5l-10.8,28
			c-0.3,1-1.1,2.1-2.2,3.2c-1.2,1.2-3,1.8-5.5,1.8H749.9z M803.6,304h51.8l-25.8-72L803.6,304z"/>
		<path class="st4" d="M980.9,369.3c-1.8,0-3.3-0.6-4.5-1.8c-1.2-1.2-1.8-2.7-1.8-4.5V229h-45.5c-1.7,0-3.1-0.6-4.2-1.8
			c-1.2-1.2-1.8-2.6-1.8-4.2v-22.5c0-1.8,0.6-3.3,1.8-4.5c1.2-1.2,2.6-1.8,4.2-1.8h131c1.8,0,3.3,0.6,4.5,1.8
			c1.2,1.2,1.8,2.7,1.8,4.5V223c0,1.7-0.6,3.1-1.8,4.2c-1.2,1.2-2.7,1.8-4.5,1.8h-45.2v134c0,1.8-0.6,3.3-1.8,4.5
			c-1.2,1.2-2.7,1.8-4.5,1.8H980.9z"/>
	</g>
</g>
<g>
	<path class="st4" d="M657.4,376.5h-31.3c-12.5,0-22.7-10.2-22.7-22.7s10.2-22.7,22.7-22.7h31.3c4.5,0,8.1-3.6,8.1-8.1V214.9
		c0-12.5,10.2-22.7,22.7-22.7s22.7,10.2,22.7,22.7V323C710.9,352.5,686.9,376.5,657.4,376.5z"/>
</g>
<g>
	<path class="st4" d="M1104,152.3H555v-22c0-12.7,13-23,29-23h490.9c16,0,29,10.3,29,23V152.3z"/>
</g>
<g>
	<path class="st4" d="M555,412.2h549v22c0,12.7-13,23-29,23H584c-16,0-29-10.3-29-23V412.2z"/>
</g>
</svg>
