<?xml version="1.0" encoding="UTF-8"?><svg id="Livello_2" xmlns="http://www.w3.org/2000/svg" viewBox="0 0 963.78 661.14"><defs><style>.cls-1{fill:#7d562b;stroke-width:0px;}</style></defs><path class="cls-1" d="m533.79,510.62c11.37-1.15,11.8,3.47,19.81-7.46-2.45-7.68-6.72,2.8-7.41,4.98-7.02-3.24,8.96-17.23,9.95-12.48,70.34-100.06-68.84-201.67-163.43-134.7-48.68,34.46-37,116.53,4.95,149.66,36.57,28.91,96.66,30.64,136.12,0m-141.08-286.85c-4.52-22.56-26.06-42.1-59.4-44.9-35.67-3.02-73.19,18.83-74.22,57.38-2.2,77.32,155.38,95.44,133.62-12.48m329.24,42.41c-3.32-6.97-3.36-24.34-2.5-44.9,5.64,1.87,1.03,13.99,2.5,19.94,9.26-8.62,5.08-15.5,2.5-27.4-2.41.05-1.94,3.02-2.5,4.97-6.76-2.31,3.4-7.82,0-14.97-25.33-38.41-58.03-80.78-128.76-72.34-43.59,5.2-79,43.66-84.17,87.31-11.29,96.51,128.67,146.6,193.16,69.82,3.01-3.55,9.43-3.73,12.36-7.46-12.79-10.92,8.44-7.82,0-19.98.69-5.91,6.68,2.8,7.41,5.02m-665.88-5.02c-20.55,3.24-25.29,20.7-42.09,29.98C-13.11,217.24-.45,140.19,48.66,101.55,129.51,37.91,304.1,7.85,437.3,1.76c96.49-4.44,185.96-.84,264.88,14.92,34.59,7.02,84.09,20.12,76.67,25.05,86.15,21.14,200.35,88.91,183.21,214.5-1.38,10.08-7.75,31.35-14.86,32.38,6.16-4.62.17-4.57-4.91-2.49-3.27,12.97.3,7.06,4.91,9.99-12.28,10.61-17.96,28.33-27.22,42.41-30.37,46.05-69.09,88.33-106.44,124.7-4.52-8.75-5.99-20.61-17.32-22.47-3.1,13.41-6.63,16.12-14.9,22.47,14.73,19.54,3.49,36.42-17.27,47.39-3.84-12.66-2.84-.31-14.86-2.49.52,8.04-4.35,10.57-2.5,19.94-77.07,54.76-151.72,123.28-274.74,132.21-141.55,10.21-215.51-72.48-287.15-144.69C115.6,445.91,48.75,378.94,16.48,298.6c6.03-9.68,36.36-25.31,39.59-37.44"/></svg>