<?xml version="1.0" encoding="UTF-8"?><svg id="Livello_2" xmlns="http://www.w3.org/2000/svg" viewBox="0 0 963.78 964.44"><defs><style>.cls-1{fill:red;stroke-width:0px;}</style></defs><path class="cls-1" d="m0,482.67C-.3,218.12,216.92.31,481.36,0c265.76-.31,482.99,218.24,482.42,485.35-.56,261.91-218.61,478.82-481.6,479.09C217.88,964.71.3,747.32,0,482.67Zm149.8-3.04c.05,187.03,146.08,334.7,331.25,334.97,183.73.27,332.73-147.34,332.85-329.76.13-186.69-146.21-334.75-331.2-335.1-183.69-.35-332.96,147.56-332.91,329.89Z"/><path class="cls-1" d="m241.63,360.93c44.17,52.26,88.34,104.52,135.56,160.39,35.06-76.97,68.31-149.97,104.63-229.7,36.58,80.01,70,153.12,104.84,229.34,46.95-55.39,91.23-107.63,135.51-159.87,2.45.93,4.9,1.87,7.35,2.8-7.83,42.18-15.4,84.4-23.58,126.51-8.39,43.21-15.87,86.7-26.92,129.25-4.06,15.62-14.01,33.18-26.67,42.54-98.41,72.7-246.86,71.32-344.36-1.96-8.97-6.74-19.38-16.68-21.46-26.72-18.55-89.43-35.37-179.23-52.71-268.91,2.6-1.22,5.2-2.45,7.8-3.67Z"/></svg>