<?xml version="1.0" encoding="UTF-8"?><svg id="Livello_2" xmlns="http://www.w3.org/2000/svg" viewBox="0 0 201.86 271.52"><defs><style>.cls-1{fill:red;stroke-width:0px;}</style></defs><path class="cls-1" d="m101.59,0c.52,1.81,1.08,3.6,1.55,5.42,5.75,21.93,19.62,36.32,41.04,43.18,13.72,4.4,25.49-5.15,23.66-18.6-1.31-9.63-9.84-15.18-22.66-13.95,11.23-5.51,21.71-5.58,32.22-1.41,21.46,8.51,31.27,35.32,19.27,54.97-6.68,10.94-6.88,21.62-3.21,32.96,4.09,12.66,6.25,25.51,5.56,38.81-.07,1.41-.28,2.81-.97,4.45-7-34.22-25.7-59.11-57.78-73.65.64,1.23,1.21,2.5,1.93,3.68,12.91,21.18,25.79,42.38,38.77,63.51,11.83,19.25,16.14,40.34,14.82,62.57-.87,14.74-5.78,28.3-14.9,40.13-.98,1.27-2.09,2.42-3.04,3.51,1.75-8.78,4.37-17.43,5.06-26.23,2.39-30.69-9.68-55.05-34.05-73.48-1.06-.81-3.54-.92-4.69-.23-5.5,3.28-11.34,4.8-17.67,4.24-7.04-.63-11.14,2.58-13.55,9.05-5.35,14.39-7.02,29.38-7.86,44.54-1.19,21.44-2.4,42.88-3.63,64.32-.07,1.23-.42,2.45-1.79,3.72-.24-1.51-.61-3-.71-4.52-1.42-23.09-2.21-46.24-4.45-69.25-1.26-12.97-4.27-25.87-7.68-38.48-2.31-8.55-4.73-8.9-13.5-9.51-4.84-.33-9.95-1.49-14.22-3.67-3.42-1.74-5.27-1.13-7.85.84-29.11,22.22-40.1,59.23-27.91,94.35.47,1.35.96,2.68,1.05,4.19-8.75-8.9-14.12-19.65-16.54-31.68-5.26-26.21-.89-50.98,12.79-73.92,13.47-22.57,27.32-44.92,40.48-67.75C29.55,86.75,10.83,111.44,3.5,145.71c-.23-1.1-.6-2.2-.66-3.31-.77-13.11.95-25.92,5.07-38.38,3.99-12.05,4.26-23.3-2.96-34.84C-3.31,55.98-.79,37.74,9.24,25.73c10.22-12.23,26.96-17.07,42.03-12.1,1.54.51,2.98,1.34,5.31,2.4-12.8-1.17-21.28,4.33-22.6,13.95-1.84,13.45,9.92,23.01,23.64,18.62,21.42-6.86,35.31-21.22,41.04-43.17.48-1.82,1.05-3.62,1.57-5.43.45,0,.9,0,1.35,0Zm34.05,116.71c-7.63-11.29-14.97-22.15-22.31-33.01-.98,8.6-1.07,16.85-.87,25.09.02,1.07,1.31,2.79,2.32,3.05,6.66,1.74,13.41,3.17,20.87,4.87Zm-69.46.05c6.96-1.64,13.19-3.03,19.37-4.66.8-.21,1.82-1.61,1.84-2.47.14-7.56.08-15.13.08-22.69-.33-.08-.67-.17-1-.25-6.65,9.85-13.29,19.71-20.29,30.08Z"/></svg>