<?xml version="1.0" encoding="utf-8"?>
<!-- Generator: Adobe Illustrator 28.0.0, SVG Export Plug-In . SVG Version: 6.00 Build 0)  -->
<svg version="1.1" id="Livello_1" xmlns="http://www.w3.org/2000/svg" xmlns:xlink="http://www.w3.org/1999/xlink" x="0px" y="0px"
	 viewBox="0 0 162.7 162.7" style="enable-background:new 0 0 162.7 162.7;" xml:space="preserve">
<style type="text/css">
	.st0{fill:#FFFFFF;}
	.st1{fill:#F9D8D9;stroke:#3B3C3C;stroke-width:5.6693;stroke-linecap:round;stroke-miterlimit:10;}
	.st2{fill:#FBE6E7;stroke:#3B3C3C;stroke-width:5.6693;stroke-linecap:round;stroke-miterlimit:10;}
	.st3{fill:none;stroke:#3B3C3C;stroke-width:2.8346;stroke-linecap:round;stroke-miterlimit:10;}
	.st4{fill:#3B3C3C;}
	.st5{fill:#54494B;stroke:#3B3C3C;stroke-width:5.6693;stroke-linecap:round;stroke-miterlimit:10;}
</style>
<g>
	
		<image style="overflow:visible;opacity:0.15;" width="169" height="169" xlink:href="DB0697BF7B6EE331.png"  transform="matrix(1 0 0 1 -3.5039 -0.8039)">
	</image>
	<g>
		<circle class="st0" cx="81.2" cy="81.2" r="75.6"/>
	</g>
</g>
<g>
	<g>
		<g>
			<ellipse class="st1" cx="123.7" cy="102.2" rx="11.9" ry="13.9"/>
			<ellipse class="st2" cx="38.6" cy="102.6" rx="11.9" ry="13.9"/>
			<path class="st2" d="M122,78.3L122,78.3c0-20.1-18.5-36.4-41.3-36.4S39.4,58.2,39.4,78.3v17.5l0,0c0.1,20,18.6,36.2,41.3,36.2
				s41.2-16.2,41.3-36.2l0,0V78.3z"/>
			<path class="st3" d="M85.5,112.3c0,0-0.1-3.3-5-3.3s-4.8,3.3-4.8,3.3"/>
			<path class="st3" d="M57.7,85.9c2.2-2.6,6.1-3.7,10-2.5c3.2,0.9,5.6,3.1,6.7,5.6"/>
			<path class="st3" d="M103.8,86.1c-2.1-2.6-6-3.8-10-2.8c-3.2,0.8-5.7,2.9-6.8,5.5"/>
			<g>
				<circle class="st4" cx="68.3" cy="95.5" r="3.9"/>
				<circle class="st4" cx="93.2" cy="95.5" r="3.9"/>
			</g>
			<path class="st5" d="M42.8,76.2c0,0,2.8,5.2,10.3,4.5s15.1-8.9,15.1-8.9s1.8,4.6,6.8,4.6c4.9,0,6.5-4.6,6.5-4.6s0.5,4.3,5.5,4.3
				c5.1,0,7.8-4.3,7.8-4.3s6.6,9.1,14.1,9.1s11.4-6,11.4-6v16.6c4.6-6.1,7.2-13.4,7.2-21.2c0-22-20.9-39.9-46.8-39.9
				S33.9,48.1,33.9,70.1c0,8.7,3.3,16.8,8.9,23.4V76.2z"/>
			<path class="st4" d="M73.1,106.7h-9.7c-0.8,0-1.5-0.7-1.5-1.5v-2.9c0-0.8,0.7-1.5,1.5-1.5h9.7c0.8,0,1.5,0.7,1.5,1.5v2.9
				C74.6,106,73.9,106.7,73.1,106.7z"/>
			<path class="st4" d="M98,106.7h-9.7c-0.8,0-1.5-0.7-1.5-1.5v-2.9c0-0.8,0.7-1.5,1.5-1.5H98c0.8,0,1.5,0.7,1.5,1.5v2.9
				C99.5,106,98.9,106.7,98,106.7z"/>
		</g>
	</g>
</g>
</svg>
