<?xml version="1.0" encoding="utf-8"?>
<!-- Generator: Adobe Illustrator 28.1.0, SVG Export Plug-In . SVG Version: 6.00 Build 0)  -->
<svg version="1.1" id="Livello_1" xmlns="http://www.w3.org/2000/svg" xmlns:xlink="http://www.w3.org/1999/xlink" x="0px" y="0px"
	 viewBox="0 0 1179.6 862.8" style="enable-background:new 0 0 1179.6 862.8;" xml:space="preserve">
<style type="text/css">
	.st0{fill:#96E6B3;}
	.st1{fill:#191923;}
	.st2{fill:#96E6B3;stroke:#191923;stroke-width:56.6929;stroke-linecap:round;stroke-miterlimit:10;}
	.st3{fill:none;stroke:#191923;stroke-width:45.3543;stroke-linecap:round;stroke-miterlimit:10;}
</style>
<g>
	<rect x="555" y="135.6" class="st0" width="549" height="293.2"/>
</g>
<g>
	<path class="st0" d="M1094.4,801.8H85.3c-17.1,0-31-13.9-31-31v-56.8c0-17.1,13.9-31,31-31h1009.1c17.1,0,31,13.9,31,31v56.8
		C1125.4,788,1111.5,801.8,1094.4,801.8z"/>
</g>
<g>
	<g>
		<circle class="st0" cx="266" cy="286.6" r="191.9"/>
		<path class="st1" d="M266,123.1c43.7,0,84.8,17,115.6,47.9s47.9,72,47.9,115.6s-17,84.8-47.9,115.6s-72,47.9-115.6,47.9
			s-84.8-17-115.6-47.9s-47.9-72-47.9-115.6s17-84.8,47.9-115.6S222.3,123.1,266,123.1 M266,66.4C144.4,66.4,45.8,165,45.8,286.6
			S144.4,506.9,266,506.9s220.2-98.6,220.2-220.2S387.7,66.4,266,66.4L266,66.4z"/>
	</g>
	<path class="st1" d="M556.6,516.1L434.7,394.2L334.5,494.4l121.9,121.9c27.7,27.7,72.5,27.7,100.2,0l0,0
		C584.3,588.6,584.3,543.8,556.6,516.1z"/>
	<g>
		<path class="st2" d="M153.7,300.5l41.3,41.3c12.1,12.1,31.6,12.1,43.7,0l119.5-119.5"/>
	</g>
</g>
<g>
	<g>
		<path class="st1" d="M749.9,369.3c-1.5,0-2.8-0.5-3.8-1.6c-1-1.1-1.5-2.3-1.5-3.6c0-0.8,0.1-1.6,0.2-2.2L804.4,201
			c0.5-1.8,1.5-3.4,3-4.8c1.5-1.3,3.6-2,6.2-2h32c2.7,0,4.8,0.7,6.2,2c1.5,1.3,2.5,2.9,3,4.8l59.5,160.8c0.2,0.7,0.2,1.4,0.2,2.2
			c0,1.3-0.5,2.5-1.5,3.6c-1,1.1-2.2,1.6-3.8,1.6h-26c-2.5,0-4.3-0.6-5.5-1.8c-1.2-1.2-1.9-2.2-2.2-3.2l-10.8-28h-70.5l-10.8,28
			c-0.3,1-1.1,2.1-2.2,3.2c-1.2,1.2-3,1.8-5.5,1.8H749.9z M803.6,304h51.8l-25.8-72L803.6,304z"/>
		<path class="st1" d="M980.9,369.3c-1.8,0-3.3-0.6-4.5-1.8c-1.2-1.2-1.8-2.7-1.8-4.5V229h-45.5c-1.7,0-3.1-0.6-4.2-1.8
			c-1.2-1.2-1.8-2.6-1.8-4.2v-22.5c0-1.8,0.6-3.3,1.8-4.5c1.2-1.2,2.6-1.8,4.2-1.8h131c1.8,0,3.3,0.6,4.5,1.8
			c1.2,1.2,1.8,2.7,1.8,4.5V223c0,1.7-0.6,3.1-1.8,4.2c-1.2,1.2-2.7,1.8-4.5,1.8h-45.2v134c0,1.8-0.6,3.3-1.8,4.5
			c-1.2,1.2-2.7,1.8-4.5,1.8H980.9z"/>
	</g>
</g>
<g>
	<g>
		<path class="st1" d="M122.9,770.1c-3,0-5.8-0.4-8.5-1.1c-2.7-0.7-5-1.9-7.1-3.4c-2.1-1.5-3.7-3.4-4.9-5.6c-1.2-2.2-1.9-4.9-2-7.8
			c0-0.5,0.2-0.9,0.5-1.2c0.3-0.3,0.7-0.5,1.3-0.5h9.1c0.7,0,1.2,0.2,1.6,0.6c0.4,0.4,0.7,0.9,0.9,1.6c0.3,1.7,0.8,3.1,1.7,4.2
			c0.9,1.1,1.9,1.9,3.2,2.4c1.3,0.5,2.8,0.8,4.4,0.8c3,0,5.4-1,7-3c1.6-2,2.4-4.8,2.4-8.4v-24.5H106c-0.5,0-1-0.2-1.4-0.6
			c-0.4-0.4-0.6-0.8-0.6-1.4v-6.7c0-0.6,0.2-1.1,0.6-1.4c0.4-0.4,0.8-0.6,1.4-0.6h37.7c0.6,0,1.1,0.2,1.4,0.6
			c0.4,0.4,0.6,0.9,0.6,1.4v33.4c0,4.6-1,8.5-2.9,11.6c-1.9,3.2-4.6,5.6-8,7.2C131.4,769.3,127.5,770.1,122.9,770.1z"/>
		<path class="st1" d="M175.2,770.1c-4.4,0-8.1-0.7-11.1-2.2c-3-1.5-5.3-3.6-6.8-6.3c-1.6-2.7-2.4-5.9-2.6-9.5
			c-0.1-1.1-0.1-2.3-0.1-3.6c0-1.4,0-2.5,0.1-3.6c0.2-3.7,1.1-6.9,2.7-9.6c1.7-2.7,4-4.8,7-6.2c3-1.5,6.6-2.2,10.9-2.2
			c4.2,0,7.8,0.7,10.8,2.2c3,1.5,5.3,3.5,7,6.2c1.7,2.7,2.6,5.9,2.7,9.6c0.1,1,0.2,2.2,0.2,3.6c0,1.4-0.1,2.6-0.2,3.6
			c-0.2,3.6-1,6.8-2.6,9.5c-1.6,2.7-3.9,4.8-6.8,6.3C183.3,769.4,179.6,770.1,175.2,770.1z M175.2,761.3c2.6,0,4.6-0.8,5.9-2.4
			c1.3-1.6,2.1-4,2.2-7.2c0.1-0.8,0.1-1.9,0.1-3.2c0-1.3,0-2.4-0.1-3.2c-0.1-3.1-0.8-5.5-2.2-7.1c-1.3-1.7-3.3-2.5-5.9-2.5
			c-2.6,0-4.6,0.8-6,2.5c-1.4,1.7-2.1,4-2.2,7.1c-0.1,0.8-0.1,1.9-0.1,3.2c0,1.3,0,2.4,0.1,3.2c0.1,3.1,0.8,5.5,2.2,7.2
			C170.6,760.5,172.6,761.3,175.2,761.3z"/>
		<path class="st1" d="M228.4,770.1c-3,0-5.6-0.5-7.6-1.6c-2-1-3.7-2.4-5-4v2.7c0,0.6-0.2,1.1-0.6,1.4c-0.4,0.4-0.9,0.6-1.4,0.6
			h-7.6c-0.6,0-1.1-0.2-1.4-0.6s-0.6-0.9-0.6-1.4v-52.8c0-0.6,0.2-1.1,0.6-1.4c0.4-0.4,0.9-0.6,1.4-0.6h8.2c0.5,0,1,0.2,1.4,0.6
			c0.4,0.4,0.6,0.9,0.6,1.4v17.4c1.3-1.5,3-2.7,5-3.6c2-0.9,4.3-1.4,7-1.4c2.8,0,5.2,0.5,7.2,1.4c2.1,0.9,3.8,2.2,5.2,3.9
			c1.4,1.7,2.5,3.7,3.3,6c0.8,2.3,1.2,4.8,1.2,7.6c0.1,1,0.1,1.9,0.1,2.7c0,0.8,0,1.7-0.1,2.8c-0.1,2.8-0.5,5.4-1.3,7.7
			c-0.8,2.3-1.9,4.3-3.3,6c-1.4,1.7-3.1,3-5.2,3.8C233.6,769.7,231.2,770.1,228.4,770.1z M224.8,760.5c2,0,3.6-0.4,4.8-1.3
			c1.2-0.9,2-2,2.5-3.5c0.5-1.4,0.8-3,0.9-4.7c0.1-1.7,0.1-3.3,0-5c-0.1-1.7-0.4-3.3-0.9-4.7c-0.5-1.4-1.3-2.6-2.5-3.5
			c-1.2-0.9-2.8-1.3-4.8-1.3c-1.9,0-3.5,0.4-4.7,1.3c-1.2,0.9-2.1,1.9-2.7,3.2c-0.6,1.3-0.9,2.7-1,4.2c-0.1,1-0.1,1.9-0.1,3
			c0,1,0,2,0.1,3c0.1,1.6,0.4,3.1,1,4.5c0.5,1.4,1.4,2.5,2.6,3.4C221.3,760,222.9,760.5,224.8,760.5z"/>
		<path class="st1" d="M269.3,769.3c-0.5,0-0.9-0.2-1.2-0.5c-0.3-0.3-0.5-0.7-0.5-1.2c0-0.3,0-0.5,0.1-0.7l19-51.4
			c0.2-0.6,0.5-1.1,1-1.5c0.5-0.4,1.1-0.6,2-0.6H300c0.9,0,1.5,0.2,2,0.6c0.5,0.4,0.8,0.9,1,1.5l19,51.4c0.1,0.2,0.1,0.5,0.1,0.7
			c0,0.4-0.2,0.8-0.5,1.2s-0.7,0.5-1.2,0.5H312c-0.8,0-1.4-0.2-1.8-0.6s-0.6-0.7-0.7-1l-3.4-9h-22.6l-3.4,9c-0.1,0.3-0.3,0.7-0.7,1
			s-1,0.6-1.8,0.6H269.3z M286.5,748.4h16.6l-8.2-23L286.5,748.4z"/>
		<path class="st1" d="M330,784.5c-0.6,0-1.1-0.2-1.4-0.6s-0.6-0.9-0.6-1.4v-52.8c0-0.6,0.2-1.1,0.6-1.4c0.4-0.4,0.9-0.6,1.4-0.6
			h7.6c0.6,0,1.1,0.2,1.4,0.6c0.4,0.4,0.6,0.9,0.6,1.4v3c1.3-1.7,2.9-3.1,5-4.2c2-1.1,4.6-1.6,7.6-1.6c2.8,0,5.2,0.4,7.2,1.3
			c2.1,0.9,3.8,2.1,5.2,3.8c1.4,1.6,2.5,3.6,3.3,5.9c0.8,2.3,1.2,4.9,1.3,7.8c0.1,1,0.1,2,0.1,2.9c0,0.9,0,1.9-0.1,3
			c-0.1,2.7-0.5,5.2-1.2,7.5c-0.8,2.3-1.9,4.3-3.3,5.9c-1.4,1.7-3.2,2.9-5.2,3.8c-2.1,0.9-4.5,1.4-7.2,1.4c-2.7,0-5.1-0.5-7.1-1.5
			s-3.6-2.3-4.9-4v17.9c0,0.6-0.2,1.1-0.6,1.4s-0.8,0.6-1.4,0.6H330z M348.6,760.5c2,0,3.6-0.4,4.8-1.3c1.2-0.9,2-2,2.5-3.5
			c0.5-1.4,0.8-3,0.9-4.7c0.1-1.7,0.1-3.3,0-5c-0.1-1.7-0.4-3.3-0.9-4.7c-0.5-1.4-1.3-2.6-2.5-3.5c-1.2-0.9-2.8-1.3-4.8-1.3
			c-2,0-3.6,0.5-4.8,1.4c-1.2,0.9-2.1,2.1-2.6,3.4c-0.5,1.4-0.9,2.9-1,4.5c-0.1,1-0.1,1.9-0.1,3c0,1,0,2,0.1,3
			c0.1,1.5,0.4,2.9,1,4.2c0.6,1.3,1.5,2.4,2.7,3.2C345.1,760.1,346.7,760.5,348.6,760.5z"/>
		<path class="st1" d="M379.8,784.5c-0.6,0-1.1-0.2-1.4-0.6s-0.6-0.9-0.6-1.4v-52.8c0-0.6,0.2-1.1,0.6-1.4c0.4-0.4,0.9-0.6,1.4-0.6
			h7.6c0.6,0,1.1,0.2,1.4,0.6c0.4,0.4,0.6,0.9,0.6,1.4v3c1.3-1.7,2.9-3.1,5-4.2c2-1.1,4.6-1.6,7.6-1.6c2.8,0,5.2,0.4,7.2,1.3
			c2.1,0.9,3.8,2.1,5.2,3.8c1.4,1.6,2.5,3.6,3.3,5.9c0.8,2.3,1.2,4.9,1.3,7.8c0.1,1,0.1,2,0.1,2.9c0,0.9,0,1.9-0.1,3
			c-0.1,2.7-0.5,5.2-1.2,7.5c-0.8,2.3-1.9,4.3-3.3,5.9c-1.4,1.7-3.2,2.9-5.2,3.8c-2.1,0.9-4.5,1.4-7.2,1.4c-2.7,0-5.1-0.5-7.1-1.5
			s-3.6-2.3-4.9-4v17.9c0,0.6-0.2,1.1-0.6,1.4s-0.8,0.6-1.4,0.6H379.8z M398.4,760.5c2,0,3.6-0.4,4.8-1.3c1.2-0.9,2-2,2.5-3.5
			c0.5-1.4,0.8-3,0.9-4.7c0.1-1.7,0.1-3.3,0-5c-0.1-1.7-0.4-3.3-0.9-4.7c-0.5-1.4-1.3-2.6-2.5-3.5c-1.2-0.9-2.8-1.3-4.8-1.3
			c-2,0-3.6,0.5-4.8,1.4c-1.2,0.9-2.1,2.1-2.6,3.4c-0.5,1.4-0.9,2.9-1,4.5c-0.1,1-0.1,1.9-0.1,3c0,1,0,2,0.1,3
			c0.1,1.5,0.4,2.9,1,4.2c0.6,1.3,1.5,2.4,2.7,3.2C394.9,760.1,396.4,760.5,398.4,760.5z"/>
		<path class="st1" d="M429.6,769.3c-0.6,0-1.1-0.2-1.4-0.6s-0.6-0.9-0.6-1.4v-52.8c0-0.6,0.2-1.1,0.6-1.4c0.4-0.4,0.9-0.6,1.4-0.6
			h8c0.5,0,1,0.2,1.4,0.6c0.4,0.4,0.6,0.9,0.6,1.4v52.8c0,0.6-0.2,1.1-0.6,1.4c-0.4,0.4-0.8,0.6-1.4,0.6H429.6z"/>
		<path class="st1" d="M451.2,721.3c-0.5,0-1-0.2-1.4-0.6c-0.4-0.4-0.6-0.9-0.6-1.4v-6.4c0-0.6,0.2-1.1,0.6-1.5
			c0.4-0.4,0.8-0.6,1.4-0.6h8.4c0.6,0,1.1,0.2,1.5,0.6c0.4,0.4,0.6,0.9,0.6,1.5v6.4c0,0.6-0.2,1.1-0.6,1.4c-0.4,0.4-0.9,0.6-1.5,0.6
			H451.2z M451.5,769.3c-0.5,0-1-0.2-1.4-0.6s-0.6-0.9-0.6-1.4v-37.6c0-0.6,0.2-1.1,0.6-1.4c0.4-0.4,0.8-0.6,1.4-0.6h8
			c0.6,0,1.1,0.2,1.4,0.6c0.4,0.4,0.6,0.9,0.6,1.4v37.6c0,0.6-0.2,1.1-0.6,1.4c-0.4,0.4-0.9,0.6-1.4,0.6H451.5z"/>
		<path class="st1" d="M490,770.1c-3.9,0-7.3-0.7-10.3-2.2c-3-1.4-5.3-3.5-7-6.3c-1.7-2.7-2.6-6-2.8-9.9c-0.1-0.9-0.1-1.9-0.1-3.2
			c0-1.3,0-2.4,0.1-3.2c0.2-3.9,1.1-7.2,2.8-10c1.7-2.7,4-4.8,7-6.3c3-1.4,6.4-2.2,10.3-2.2c3.6,0,6.6,0.5,9.1,1.5
			c2.5,1,4.6,2.2,6.2,3.7c1.6,1.5,2.8,3.1,3.6,4.7c0.8,1.6,1.2,3.1,1.2,4.3c0.1,0.5-0.1,1-0.5,1.4c-0.4,0.4-0.9,0.6-1.4,0.6h-8.6
			c-0.5,0-0.9-0.1-1.2-0.4c-0.3-0.3-0.6-0.7-0.8-1.2c-0.7-1.9-1.7-3.2-2.9-4c-1.2-0.8-2.6-1.2-4.4-1.2c-2.4,0-4.3,0.8-5.7,2.3
			c-1.4,1.5-2.1,3.9-2.2,7.2c-0.1,2.1-0.1,4,0,5.7c0.2,3.3,0.9,5.7,2.3,7.2s3.2,2.2,5.6,2.2c1.9,0,3.4-0.4,4.5-1.2
			c1.1-0.8,2.1-2.1,2.8-4c0.2-0.5,0.5-0.9,0.8-1.2c0.3-0.3,0.7-0.4,1.3-0.4h8.6c0.5,0,1,0.2,1.4,0.6c0.4,0.4,0.6,0.9,0.5,1.4
			c-0.1,0.9-0.3,2-0.8,3.2c-0.5,1.2-1.2,2.5-2.2,3.8c-1,1.3-2.3,2.5-3.8,3.6c-1.5,1.1-3.4,2-5.6,2.6
			C495.5,769.8,492.9,770.1,490,770.1z"/>
		<path class="st1" d="M530.1,770.1c-2.8,0-5.4-0.5-7.6-1.6c-2.2-1.1-4-2.6-5.4-4.4c-1.3-1.9-2-3.9-2-6.2c0-3.8,1.5-6.8,4.6-9
			c3.1-2.2,7.1-3.7,12.1-4.5l10.5-1.5v-1.4c0-2.1-0.5-3.7-1.4-4.8s-2.6-1.7-5-1.7c-1.8,0-3.2,0.3-4.2,1c-1.1,0.7-1.9,1.6-2.5,2.7
			c-0.4,0.7-1,1-1.8,1h-7.6c-0.6,0-1-0.2-1.4-0.5c-0.3-0.3-0.5-0.8-0.4-1.2c0-0.9,0.3-2,1-3.2c0.7-1.2,1.8-2.4,3.2-3.6
			c1.4-1.2,3.3-2.2,5.5-3s5-1.2,8.2-1.2c3.4,0,6.2,0.4,8.6,1.2c2.4,0.8,4.3,1.9,5.8,3.4c1.4,1.4,2.5,3.1,3.2,5c0.7,1.9,1,3.9,1,6.1
			v24.7c0,0.6-0.2,1.1-0.6,1.4c-0.4,0.4-0.9,0.6-1.4,0.6h-7.8c-0.5,0-1-0.2-1.4-0.6s-0.6-0.9-0.6-1.4v-3c-0.7,1-1.6,2-2.8,2.8
			c-1.2,0.9-2.6,1.6-4.2,2.1C534.2,769.8,532.3,770.1,530.1,770.1z M533.3,761.8c1.8,0,3.3-0.4,4.7-1.1c1.4-0.7,2.5-1.9,3.3-3.4
			c0.8-1.5,1.2-3.5,1.2-5.8V750l-7.4,1.2c-2.9,0.5-5,1.2-6.3,2.2c-1.3,1-2,2.1-2,3.5c0,1,0.3,1.9,0.9,2.6c0.6,0.7,1.4,1.3,2.4,1.7
			C531.1,761.6,532.2,761.8,533.3,761.8z"/>
		<path class="st1" d="M584.3,769.3c-3.3,0-6.1-0.5-8.5-1.6c-2.3-1.1-4.1-2.8-5.3-5.1c-1.2-2.3-1.8-5.2-1.8-8.6v-16.8h-6.2
			c-0.6,0-1.1-0.2-1.4-0.6s-0.6-0.9-0.6-1.4v-5.4c0-0.6,0.2-1.1,0.6-1.4c0.4-0.4,0.9-0.6,1.4-0.6h6.2v-13.2c0-0.6,0.2-1.1,0.6-1.4
			c0.4-0.4,0.9-0.6,1.4-0.6h7.8c0.6,0,1.1,0.2,1.4,0.6c0.4,0.4,0.6,0.9,0.6,1.4v13.2h10c0.5,0,1,0.2,1.4,0.6
			c0.4,0.4,0.6,0.9,0.6,1.4v5.4c0,0.6-0.2,1.1-0.6,1.4s-0.8,0.6-1.4,0.6h-10V753c0,2,0.4,3.6,1.1,4.8c0.7,1.1,2,1.7,3.8,1.7h5.8
			c0.5,0,1,0.2,1.4,0.6c0.4,0.4,0.6,0.8,0.6,1.4v5.9c0,0.6-0.2,1.1-0.6,1.4c-0.4,0.4-0.8,0.6-1.4,0.6H584.3z"/>
		<path class="st1" d="M601.8,721.3c-0.5,0-1-0.2-1.4-0.6c-0.4-0.4-0.6-0.9-0.6-1.4v-6.4c0-0.6,0.2-1.1,0.6-1.5
			c0.4-0.4,0.8-0.6,1.4-0.6h8.4c0.6,0,1.1,0.2,1.5,0.6c0.4,0.4,0.6,0.9,0.6,1.5v6.4c0,0.6-0.2,1.1-0.6,1.4c-0.4,0.4-0.9,0.6-1.5,0.6
			H601.8z M602,769.3c-0.5,0-1-0.2-1.4-0.6s-0.6-0.9-0.6-1.4v-37.6c0-0.6,0.2-1.1,0.6-1.4c0.4-0.4,0.8-0.6,1.4-0.6h8
			c0.6,0,1.1,0.2,1.4,0.6c0.4,0.4,0.6,0.9,0.6,1.4v37.6c0,0.6-0.2,1.1-0.6,1.4c-0.4,0.4-0.9,0.6-1.4,0.6H602z"/>
		<path class="st1" d="M641.1,770.1c-4.4,0-8.1-0.7-11.1-2.2c-3-1.5-5.3-3.6-6.8-6.3c-1.6-2.7-2.4-5.9-2.6-9.5
			c-0.1-1.1-0.1-2.3-0.1-3.6c0-1.4,0-2.5,0.1-3.6c0.2-3.7,1.1-6.9,2.7-9.6c1.7-2.7,4-4.8,7-6.2c3-1.5,6.6-2.2,10.9-2.2
			c4.2,0,7.8,0.7,10.8,2.2c3,1.5,5.3,3.5,7,6.2c1.7,2.7,2.6,5.9,2.7,9.6c0.1,1,0.2,2.2,0.2,3.6c0,1.4-0.1,2.6-0.2,3.6
			c-0.2,3.6-1,6.8-2.6,9.5c-1.6,2.7-3.9,4.8-6.8,6.3C649.1,769.4,645.5,770.1,641.1,770.1z M641.1,761.3c2.6,0,4.6-0.8,5.9-2.4
			c1.3-1.6,2.1-4,2.2-7.2c0.1-0.8,0.1-1.9,0.1-3.2c0-1.3,0-2.4-0.1-3.2c-0.1-3.1-0.8-5.5-2.2-7.1c-1.3-1.7-3.3-2.5-5.9-2.5
			c-2.6,0-4.6,0.8-6,2.5c-1.4,1.7-2.1,4-2.2,7.1c-0.1,0.8-0.1,1.9-0.1,3.2c0,1.3,0,2.4,0.1,3.2c0.1,3.1,0.8,5.5,2.2,7.2
			C636.5,760.5,638.5,761.3,641.1,761.3z"/>
		<path class="st1" d="M672,769.3c-0.5,0-1-0.2-1.4-0.6s-0.6-0.9-0.6-1.4v-37.6c0-0.6,0.2-1.1,0.6-1.4c0.4-0.4,0.8-0.6,1.4-0.6h7.8
			c0.6,0,1.1,0.2,1.4,0.6c0.4,0.4,0.6,0.9,0.6,1.4v3.1c1.4-1.7,3.2-3.1,5.4-4.2c2.2-1.1,4.9-1.7,8-1.7c3.1,0,5.9,0.7,8.3,2.1
			c2.4,1.4,4.2,3.5,5.6,6.2c1.4,2.7,2,6,2,9.8v22.3c0,0.6-0.2,1.1-0.6,1.4c-0.4,0.4-0.9,0.6-1.4,0.6h-8.5c-0.6,0-1.1-0.2-1.4-0.6
			c-0.4-0.4-0.6-0.9-0.6-1.4v-21.8c0-2.8-0.7-5-2-6.6c-1.4-1.6-3.3-2.4-6-2.4c-2.5,0-4.5,0.8-6,2.4c-1.5,1.6-2.2,3.8-2.2,6.6v21.8
			c0,0.6-0.2,1.1-0.6,1.4c-0.4,0.4-0.8,0.6-1.4,0.6H672z"/>
		<path class="st1" d="M737.2,770.1c-3.3,0-6.1-0.4-8.5-1.2c-2.4-0.8-4.3-1.7-5.8-2.8c-1.5-1.1-2.6-2.3-3.3-3.4
			c-0.7-1.1-1.1-2.1-1.2-2.9c-0.1-0.6,0.1-1.1,0.6-1.4c0.4-0.4,0.9-0.6,1.3-0.6h7.8c0.2,0,0.3,0,0.5,0.1c0.2,0.1,0.3,0.2,0.5,0.4
			c0.7,0.5,1.4,1,2.2,1.6c0.7,0.6,1.6,1.1,2.6,1.6c1,0.4,2.2,0.6,3.7,0.6c1.8,0,3.3-0.4,4.5-1.1c1.2-0.7,1.8-1.7,1.8-3.1
			c0-1-0.3-1.8-0.8-2.4c-0.6-0.6-1.6-1.2-3.2-1.8c-1.5-0.5-3.8-1.1-6.9-1.8c-2.9-0.6-5.3-1.5-7.4-2.6c-2-1.1-3.5-2.4-4.6-4
			c-1-1.6-1.5-3.6-1.5-5.9c0-2.1,0.7-4.1,2-6c1.3-1.9,3.2-3.5,5.8-4.8c2.6-1.3,5.8-1.9,9.6-1.9c2.9,0,5.5,0.4,7.7,1.1
			c2.2,0.7,4.1,1.6,5.6,2.7c1.5,1.1,2.6,2.2,3.4,3.4c0.8,1.1,1.2,2.1,1.2,3c0.1,0.5-0.1,1-0.5,1.4c-0.4,0.4-0.8,0.6-1.3,0.6h-7.1
			c-0.3,0-0.5,0-0.7-0.1c-0.2-0.1-0.4-0.2-0.6-0.4c-0.6-0.4-1.3-0.9-2-1.5c-0.7-0.6-1.5-1.1-2.4-1.5c-0.9-0.4-2.1-0.6-3.5-0.6
			c-1.8,0-3.1,0.4-4,1.2c-0.9,0.8-1.4,1.7-1.4,2.9c0,0.7,0.2,1.4,0.7,2.1c0.5,0.6,1.5,1.2,3,1.8c1.5,0.5,3.8,1.1,6.8,1.7
			c3.6,0.6,6.5,1.6,8.6,2.9c2.1,1.3,3.7,2.8,4.6,4.4c0.9,1.7,1.4,3.5,1.4,5.4c0,2.5-0.7,4.7-2.2,6.7c-1.5,1.9-3.7,3.5-6.5,4.6
			C744.8,769.6,741.3,770.1,737.2,770.1z"/>
		<path class="st1" d="M797,769.3c-0.6,0-1.1-0.2-1.4-0.6c-0.4-0.4-0.6-0.9-0.6-1.4v-42.9h-14.6c-0.5,0-1-0.2-1.4-0.6
			c-0.4-0.4-0.6-0.8-0.6-1.4v-7.2c0-0.6,0.2-1.1,0.6-1.4c0.4-0.4,0.8-0.6,1.4-0.6h41.9c0.6,0,1.1,0.2,1.4,0.6
			c0.4,0.4,0.6,0.9,0.6,1.4v7.2c0,0.5-0.2,1-0.6,1.4c-0.4,0.4-0.9,0.6-1.4,0.6h-14.5v42.9c0,0.6-0.2,1.1-0.6,1.4s-0.9,0.6-1.4,0.6
			H797z"/>
		<path class="st1" d="M833.1,769.3c-0.5,0-1-0.2-1.4-0.6s-0.6-0.9-0.6-1.4v-37.6c0-0.5,0.2-1,0.6-1.4s0.8-0.6,1.4-0.6h7.8
			c0.5,0,1,0.2,1.4,0.6c0.4,0.4,0.6,0.9,0.6,1.4v3.2c1.3-1.7,3-2.9,4.9-3.8c1.9-0.9,4.2-1.4,6.8-1.4h3.4c0.5,0,1,0.2,1.4,0.6
			c0.4,0.4,0.6,0.9,0.6,1.4v6.9c0,0.6-0.2,1.1-0.6,1.4c-0.4,0.4-0.8,0.6-1.4,0.6h-7c-2.3,0-4.2,0.7-5.5,2c-1.3,1.3-2,3.2-2,5.6v21.2
			c0,0.6-0.2,1.1-0.6,1.4c-0.4,0.4-0.9,0.6-1.4,0.6H833.1z"/>
		<path class="st1" d="M878.2,770.1c-2.8,0-5.4-0.5-7.6-1.6c-2.2-1.1-4-2.6-5.4-4.4c-1.3-1.9-2-3.9-2-6.2c0-3.8,1.5-6.8,4.6-9
			c3.1-2.2,7.1-3.7,12.1-4.5l10.5-1.5v-1.4c0-2.1-0.5-3.7-1.4-4.8s-2.6-1.7-5-1.7c-1.8,0-3.2,0.3-4.2,1c-1.1,0.7-1.9,1.6-2.5,2.7
			c-0.4,0.7-1,1-1.8,1h-7.6c-0.6,0-1-0.2-1.4-0.5c-0.3-0.3-0.5-0.8-0.4-1.2c0-0.9,0.3-2,1-3.2c0.7-1.2,1.8-2.4,3.2-3.6
			c1.4-1.2,3.3-2.2,5.5-3s5-1.2,8.2-1.2c3.4,0,6.2,0.4,8.6,1.2c2.4,0.8,4.3,1.9,5.8,3.4c1.4,1.4,2.5,3.1,3.2,5c0.7,1.9,1,3.9,1,6.1
			v24.7c0,0.6-0.2,1.1-0.6,1.4c-0.4,0.4-0.9,0.6-1.4,0.6h-7.8c-0.5,0-1-0.2-1.4-0.6s-0.6-0.9-0.6-1.4v-3c-0.7,1-1.6,2-2.8,2.8
			c-1.2,0.9-2.6,1.6-4.2,2.1C882.3,769.8,880.4,770.1,878.2,770.1z M881.4,761.8c1.8,0,3.3-0.4,4.7-1.1c1.4-0.7,2.5-1.9,3.3-3.4
			c0.8-1.5,1.2-3.5,1.2-5.8V750l-7.4,1.2c-2.9,0.5-5,1.2-6.3,2.2c-1.3,1-2,2.1-2,3.5c0,1,0.3,1.9,0.9,2.6c0.6,0.7,1.4,1.3,2.4,1.7
			C879.2,761.6,880.3,761.8,881.4,761.8z"/>
		<path class="st1" d="M930.8,770.1c-3.9,0-7.3-0.7-10.3-2.2c-3-1.4-5.3-3.5-7-6.3c-1.7-2.7-2.6-6-2.8-9.9c-0.1-0.9-0.1-1.9-0.1-3.2
			c0-1.3,0-2.4,0.1-3.2c0.2-3.9,1.1-7.2,2.8-10c1.7-2.7,4-4.8,7-6.3c3-1.4,6.4-2.2,10.3-2.2c3.6,0,6.6,0.5,9.1,1.5
			c2.5,1,4.6,2.2,6.2,3.7c1.6,1.5,2.8,3.1,3.6,4.7c0.8,1.6,1.2,3.1,1.2,4.3c0.1,0.5-0.1,1-0.5,1.4c-0.4,0.4-0.9,0.6-1.4,0.6h-8.6
			c-0.5,0-0.9-0.1-1.2-0.4c-0.3-0.3-0.6-0.7-0.8-1.2c-0.7-1.9-1.7-3.2-2.9-4c-1.2-0.8-2.6-1.2-4.4-1.2c-2.4,0-4.3,0.8-5.7,2.3
			c-1.4,1.5-2.1,3.9-2.2,7.2c-0.1,2.1-0.1,4,0,5.7c0.2,3.3,0.9,5.7,2.3,7.2s3.2,2.2,5.6,2.2c1.9,0,3.4-0.4,4.5-1.2
			c1.1-0.8,2.1-2.1,2.8-4c0.2-0.5,0.5-0.9,0.8-1.2c0.3-0.3,0.7-0.4,1.3-0.4h8.6c0.5,0,1,0.2,1.4,0.6c0.4,0.4,0.6,0.9,0.5,1.4
			c-0.1,0.9-0.3,2-0.8,3.2c-0.5,1.2-1.2,2.5-2.2,3.8c-1,1.3-2.3,2.5-3.8,3.6c-1.5,1.1-3.4,2-5.6,2.6
			C936.3,769.8,933.8,770.1,930.8,770.1z"/>
		<path class="st1" d="M960.8,769.3c-0.6,0-1.1-0.2-1.4-0.6s-0.6-0.9-0.6-1.4v-52.8c0-0.6,0.2-1.1,0.6-1.4c0.4-0.4,0.9-0.6,1.4-0.6
			h7.8c0.5,0,1,0.2,1.4,0.6c0.4,0.4,0.6,0.9,0.6,1.4v27l12.3-12.5c0.4-0.4,0.8-0.7,1.2-1c0.3-0.3,0.9-0.4,1.6-0.4h9
			c0.5,0,1,0.2,1.3,0.5c0.3,0.3,0.5,0.8,0.5,1.2c0,0.2-0.1,0.5-0.2,0.7c-0.1,0.3-0.3,0.5-0.6,0.6l-15.4,15.5l17.4,19.9
			c0.5,0.4,0.7,0.9,0.7,1.3c0,0.5-0.2,0.9-0.5,1.2c-0.3,0.3-0.8,0.5-1.2,0.5h-9.3c-0.8,0-1.4-0.1-1.7-0.4c-0.3-0.3-0.7-0.6-1.2-1
			l-14-15.7v15c0,0.6-0.2,1.1-0.6,1.4c-0.4,0.4-0.8,0.6-1.4,0.6H960.8z"/>
		<path class="st1" d="M1022.7,770.1c-6.1,0-11-1.7-14.6-5.1c-3.6-3.4-5.5-8.4-5.7-14.9c0-0.4,0-1,0-1.7s0-1.3,0-1.7
			c0.2-4.1,1.1-7.6,2.8-10.6c1.7-3,4-5.2,7-6.8c3-1.6,6.5-2.4,10.5-2.4c4.5,0,8.2,0.9,11.2,2.8c3,1.8,5.3,4.3,6.8,7.5
			c1.5,3.2,2.3,6.8,2.3,10.9v1.8c0,0.5-0.2,1-0.6,1.4c-0.4,0.4-0.9,0.6-1.4,0.6h-26.2c0,0.1,0,0.1,0,0.3c0,0.1,0,0.3,0,0.4
			c0.1,1.7,0.4,3.3,1,4.7c0.6,1.4,1.5,2.5,2.6,3.4c1.1,0.9,2.5,1.3,4.1,1.3c1.3,0,2.4-0.2,3.3-0.6c0.9-0.4,1.6-0.8,2.1-1.4
			c0.6-0.5,1-1,1.2-1.4c0.5-0.5,0.9-0.9,1.2-1c0.3-0.1,0.8-0.2,1.4-0.2h8.3c0.5,0,1,0.1,1.3,0.4c0.3,0.3,0.5,0.7,0.4,1.2
			c-0.1,0.9-0.5,1.9-1.3,3.2c-0.8,1.3-2,2.5-3.6,3.7c-1.6,1.2-3.6,2.2-6,3C1028.5,769.7,1025.8,770.1,1022.7,770.1z M1014.8,744.6
			h15.7v-0.2c0-1.9-0.3-3.6-0.9-5c-0.6-1.4-1.5-2.5-2.7-3.3c-1.2-0.8-2.6-1.2-4.2-1.2s-3.1,0.4-4.2,1.2c-1.2,0.8-2.1,1.9-2.7,3.3
			c-0.6,1.4-0.9,3.1-0.9,5V744.6z"/>
		<path class="st1" d="M1052.8,769.3c-0.5,0-1-0.2-1.4-0.6s-0.6-0.9-0.6-1.4v-37.6c0-0.5,0.2-1,0.6-1.4s0.8-0.6,1.4-0.6h7.8
			c0.5,0,1,0.2,1.4,0.6c0.4,0.4,0.6,0.9,0.6,1.4v3.2c1.3-1.7,3-2.9,4.9-3.8c1.9-0.9,4.2-1.4,6.8-1.4h3.4c0.5,0,1,0.2,1.4,0.6
			c0.4,0.4,0.6,0.9,0.6,1.4v6.9c0,0.6-0.2,1.1-0.6,1.4c-0.4,0.4-0.8,0.6-1.4,0.6h-7c-2.3,0-4.2,0.7-5.5,2c-1.3,1.3-2,3.2-2,5.6v21.2
			c0,0.6-0.2,1.1-0.6,1.4c-0.4,0.4-0.9,0.6-1.4,0.6H1052.8z"/>
	</g>
</g>
<g>
	<path class="st3" d="M626.1,353.8h31.3c17,0,30.8-13.8,30.8-30.8V214.9"/>
</g>
<g>
	<path class="st1" d="M1104,164H555v-27.7c0-16,13-29,29-29h490.9c16,0,29,13,29,29V164z"/>
</g>
<g>
	<path class="st1" d="M555,400.5h549v27.7c0,16-13,29-29,29H584c-16,0-29-13-29-29V400.5z"/>
</g>
</svg>
