<?xml version="1.0" encoding="utf-8"?>
<!-- Generator: Adobe Illustrator 28.0.0, SVG Export Plug-In . SVG Version: 6.00 Build 0)  -->
<svg version="1.1" id="Livello_1" xmlns="http://www.w3.org/2000/svg" xmlns:xlink="http://www.w3.org/1999/xlink" x="0px" y="0px"
	 viewBox="0 0 1179.6 679" style="enable-background:new 0 0 1179.6 679;" xml:space="preserve">
<style type="text/css">
	.st0{fill:#96E6B3;}
	.st1{fill:#191923;}
	.st2{fill:#96E6B3;stroke:#191923;stroke-width:56.6929;stroke-linecap:round;stroke-miterlimit:10;}
	.st3{fill:none;stroke:#191923;stroke-width:45.3543;stroke-linecap:round;stroke-miterlimit:10;}
</style>
<g>
	<rect x="555" y="135.6" class="st0" width="549" height="293.2"/>
</g>
<g>
	<g>
		<circle class="st0" cx="266" cy="286.6" r="191.9"/>
		<path class="st1" d="M266,123.1c43.7,0,84.8,17,115.6,47.9s47.9,72,47.9,115.6s-17,84.8-47.9,115.6s-72,47.9-115.6,47.9
			s-84.8-17-115.6-47.9s-47.9-72-47.9-115.6s17-84.8,47.9-115.6S222.3,123.1,266,123.1 M266,66.4C144.4,66.4,45.8,165,45.8,286.6
			S144.4,506.9,266,506.9s220.2-98.6,220.2-220.2S387.7,66.4,266,66.4L266,66.4z"/>
	</g>
	<path class="st1" d="M556.6,516.1L434.7,394.2L334.5,494.4l121.9,121.9c27.7,27.7,72.5,27.7,100.2,0l0,0
		C584.3,588.6,584.3,543.8,556.6,516.1z"/>
	<g>
		<path class="st2" d="M153.7,300.5l41.3,41.3c12.1,12.1,31.6,12.1,43.7,0l119.5-119.5"/>
	</g>
</g>
<g>
	<g>
		<path class="st1" d="M749.9,369.3c-1.5,0-2.8-0.5-3.8-1.6c-1-1.1-1.5-2.3-1.5-3.6c0-0.8,0.1-1.6,0.2-2.2L804.4,201
			c0.5-1.8,1.5-3.4,3-4.8c1.5-1.3,3.6-2,6.2-2h32c2.7,0,4.8,0.7,6.2,2c1.5,1.3,2.5,2.9,3,4.8l59.5,160.8c0.2,0.7,0.2,1.4,0.2,2.2
			c0,1.3-0.5,2.5-1.5,3.6c-1,1.1-2.2,1.6-3.8,1.6h-26c-2.5,0-4.3-0.6-5.5-1.8c-1.2-1.2-1.9-2.2-2.2-3.2l-10.8-28h-70.5l-10.8,28
			c-0.3,1-1.1,2.1-2.2,3.2c-1.2,1.2-3,1.8-5.5,1.8H749.9z M803.6,304h51.8l-25.8-72L803.6,304z"/>
		<path class="st1" d="M980.9,369.3c-1.8,0-3.3-0.6-4.5-1.8c-1.2-1.2-1.8-2.7-1.8-4.5V229h-45.5c-1.7,0-3.1-0.6-4.2-1.8
			c-1.2-1.2-1.8-2.6-1.8-4.2v-22.5c0-1.8,0.6-3.3,1.8-4.5c1.2-1.2,2.6-1.8,4.2-1.8h131c1.8,0,3.3,0.6,4.5,1.8
			c1.2,1.2,1.8,2.7,1.8,4.5V223c0,1.7-0.6,3.1-1.8,4.2c-1.2,1.2-2.7,1.8-4.5,1.8h-45.2v134c0,1.8-0.6,3.3-1.8,4.5
			c-1.2,1.2-2.7,1.8-4.5,1.8H980.9z"/>
	</g>
</g>
<g>
	<path class="st3" d="M626.1,353.8h31.3c17,0,30.8-13.8,30.8-30.8V214.9"/>
</g>
<g>
	<path class="st1" d="M1104,164H555v-27.7c0-16,13-29,29-29h490.9c16,0,29,13,29,29V164z"/>
</g>
<g>
	<path class="st1" d="M555,400.5h549v27.7c0,16-13,29-29,29H584c-16,0-29-13-29-29V400.5z"/>
</g>
</svg>
