<?xml version="1.0" encoding="utf-8"?>
<!-- Generator: Adobe Illustrator 28.0.0, SVG Export Plug-In . SVG Version: 6.00 Build 0)  -->
<svg version="1.1" id="Livello_1" xmlns="http://www.w3.org/2000/svg" xmlns:xlink="http://www.w3.org/1999/xlink" x="0px" y="0px"
	 viewBox="0 0 1024 273.3" style="enable-background:new 0 0 1024 273.3;" xml:space="preserve">
<style type="text/css">
	.st0{fill:none;}
	.st1{fill:#FFFFFF;}
	.st2{fill:url(#SVGID_1_);}
	.st3{fill:url(#SVGID_00000164476875156566168640000000896878486267591832_);}
	.st4{fill:url(#SVGID_00000134219133377724564700000013231266009713495186_);}
	.st5{fill:url(#SVGID_00000039851257400977156540000010940277266261651116_);}
	.st6{fill:url(#SVGID_00000153693123396056139430000004933073186718080149_);}
	.st7{fill:url(#SVGID_00000015327035350994353050000002572814048060384684_);}
	.st8{fill:url(#SVGID_00000179616195449700359990000014063774482300299684_);}
	.st9{fill:url(#SVGID_00000045610550839942661880000016431453409386123917_);}
	.st10{fill:url(#SVGID_00000169528164944179509870000015192494579222254722_);}
	.st11{fill:url(#SVGID_00000036960146162761201930000017268198040572325271_);}
	.st12{fill:url(#SVGID_00000160177791872148234730000009431122742072159927_);}
	.st13{fill:url(#SVGID_00000098927976379222211840000015327976610812125596_);}
	.st14{fill:url(#SVGID_00000138531282357845216520000010119912382077615253_);}
	.st15{fill:url(#SVGID_00000116231662477679368790000003668475900085350578_);}
	.st16{fill:url(#SVGID_00000051357386928469719270000017492293689312928897_);}
	.st17{fill:url(#SVGID_00000028320104593078824380000013112679817163585451_);}
	.st18{fill:url(#SVGID_00000101103764786369897680000016187246925850037689_);}
	.st19{fill:url(#SVGID_00000090254202900225244510000010826420252465338039_);}
	.st20{fill:url(#SVGID_00000094604109338847151660000005710066338125313681_);}
	.st21{fill:url(#SVGID_00000073709404559184701950000016212526874558583217_);}
	.st22{fill:url(#SVGID_00000004528708307953495490000008341489921994853812_);}
	.st23{fill:url(#SVGID_00000042715207391837640430000016486143698043801480_);}
	.st24{fill:url(#SVGID_00000067926125095720160070000011109867495973831834_);}
	.st25{fill:url(#SVGID_00000167374421060242312240000007977583617751640716_);}
	.st26{fill:url(#SVGID_00000098918701158777401490000004530144213160722082_);}
	.st27{fill:url(#SVGID_00000176013484522842553980000007997946998663633588_);}
	.st28{fill:url(#SVGID_00000137092258442362769940000017262995185593863594_);}
</style>
<pattern  x="135.1" y="237.3" width="113.4" height="119.3" patternUnits="userSpaceOnUse" id="SVGID_0000004559477953201144436" viewBox="0 -136.9 113.4 119.3" style="overflow:visible;">
	<g>
		<rect y="-136.9" class="st0" width="113.4" height="119.3"/>
		<g>
			<rect y="-136.9" class="st0" width="113.4" height="119.3"/>
			<g>
				<path class="st1" d="M105.7-99l-6.3,2.8c-1.1,0.5-2.2-0.5-1.9-1.7l5.1-18c0.1-0.2,0.2-0.4,0.3-0.6l7-7.8
					c0.9-0.9,2.4-0.3,2.4,0.9v33c0,1-1.5,1.3-1.8,0.3l-2.9-8.2C107.3-98.9,106.5-99.3,105.7-99z"/>
			</g>
			<g>
				<path class="st1" d="M49-128.8l-6.3,2.8c-1.1,0.5-2.2-0.5-1.9-1.7l5.1-18c0.1-0.2,0.2-0.4,0.3-0.6l7-7.8
					c0.9-0.9,2.4-0.3,2.4,0.9v33c0,1-1.5,1.3-1.8,0.3l-2.9-8.2C50.6-128.8,49.8-129.1,49-128.8z"/>
				<path class="st1" d="M72.6-127.7c0.3,1.1-0.8,2.1-1.9,1.7l0,0l-12.1-5.4c-0.5-0.2-0.8-0.7-0.8-1.3v-20.4c0-1.3,1.6-1.9,2.4-0.9
					l7,7.8c0.1,0.2,0.2,0.3,0.3,0.6L72.6-127.7z"/>
				<path class="st1" d="M62.1-127.2l-2.6,7.3c-0.3,1-1.8,0.7-1.8-0.3v-8.2c0-1,1-1.7,1.9-1.3l1.7,0.7
					C62-128.6,62.3-127.9,62.1-127.2z"/>
			</g>
			<g>
				<path class="st1" d="M15.9-97.9c0.3,1.1-0.8,2.1-1.9,1.7l0,0l-12.1-5.4c-0.5-0.2-0.9-0.7-0.9-1.3v-20.4c0-1.3,1.6-1.9,2.4-0.9
					l7,7.8c0.1,0.2,0.2,0.3,0.3,0.6L15.9-97.9z"/>
				<path class="st1" d="M5.4-97.3L2.8-90C2.5-89,1-89.3,1-90.3v-8.2c0-1,1-1.7,1.9-1.3l1.7,0.7C5.3-98.8,5.6-98,5.4-97.3z"/>
			</g>
			<g>
				<path class="st1" d="M105.7-39.4l-6.3,2.8c-1.1,0.5-2.2-0.5-1.9-1.7l5.1-18c0.1-0.2,0.2-0.4,0.3-0.6l7-7.8
					c0.9-0.9,2.4-0.3,2.4,0.9v33c0,1-1.5,1.3-1.8,0.3l-2.9-8.2C107.3-39.3,106.5-39.7,105.7-39.4z"/>
			</g>
			<g>
				<path class="st1" d="M49-69.2l-6.3,2.8c-1.1,0.5-2.2-0.5-1.9-1.7l5.1-18c0.1-0.2,0.2-0.4,0.3-0.6l7-7.8c0.9-0.9,2.4-0.3,2.4,0.9
					v33c0,1-1.5,1.3-1.8,0.3l-2.9-8.2C50.6-69.1,49.8-69.5,49-69.2z"/>
				<path class="st1" d="M72.6-68c0.3,1.1-0.8,2.1-1.9,1.7l0,0l-12.1-5.4c-0.5-0.2-0.8-0.7-0.8-1.3v-20.5c0-1.3,1.6-1.9,2.4-0.9
					l7,7.8c0.1,0.2,0.2,0.3,0.3,0.6L72.6-68z"/>
				<path class="st1" d="M62.1-67.5l-2.6,7.3c-0.3,1-1.8,0.7-1.8-0.3v-8.2c0-1,1-1.7,1.9-1.3l1.7,0.7C62-69,62.3-68.2,62.1-67.5z"/>
			</g>
			<g>
				<path class="st1" d="M15.9-38.2c0.3,1.1-0.8,2.1-1.9,1.7l0,0L1.9-41.9c-0.5-0.2-0.8-0.7-0.8-1.3v-20.4c0-1.3,1.6-1.9,2.4-0.9
					l7,7.8c0.1,0.2,0.2,0.3,0.3,0.6L15.9-38.2z"/>
				<path class="st1" d="M5.4-37.7l-2.6,7.3c-0.3,1-1.8,0.7-1.8-0.3v-8.2c0-1,1-1.7,1.9-1.3l1.7,0.7C5.3-39.2,5.6-38.4,5.4-37.7z"/>
			</g>
			<g>
				<path class="st1" d="M49-9.5l-6.3,2.8c-1.1,0.5-2.2-0.5-1.9-1.7l5.1-18c0.1-0.2,0.2-0.4,0.3-0.6l7-7.8c0.9-0.9,2.4-0.3,2.4,0.9
					v33c0,1-1.5,1.3-1.8,0.3l-2.9-8.2C50.6-9.5,49.8-9.9,49-9.5z"/>
				<path class="st1" d="M72.6-8.4c0.3,1.1-0.8,2.1-1.9,1.7l0,0l-12.1-5.4c-0.5-0.2-0.8-0.7-0.8-1.3v-20.4c0-1.3,1.6-1.9,2.4-0.9
					l7,7.8c0.1,0.2,0.2,0.3,0.3,0.6L72.6-8.4z"/>
			</g>
		</g>
	</g>
</pattern>
<linearGradient id="SVGID_1_" gradientUnits="userSpaceOnUse" x1="510.6923" y1="272.876" x2="510.6923" y2="4.5625" gradientTransform="matrix(1 0 0 -1 0 272.3565)">
	<stop  offset="0" style="stop-color:#E22721"/>
	<stop  offset="1" style="stop-color:#B41B1F"/>
</linearGradient>
<rect x="-3" y="-3.3" class="st2" width="1027.5" height="277"/>
<pattern  id="SVGID_00000125589513582476217650000015722056880217112225_" xlink:href="#SVGID_0000004559477953201144436" patternTransform="matrix(1.3643 0 0 -1.3643 2882.5259 -19955.8555)">
</pattern>
<rect x="-2.9" y="-3.3" style="fill:url(#SVGID_00000125589513582476217650000015722056880217112225_);" width="1039.8" height="277"/>
<g>
	
		<linearGradient id="SVGID_00000168838991799448005900000004858421306501704834_" gradientUnits="userSpaceOnUse" x1="115.2104" y1="197.1543" x2="115.2104" y2="143.95" gradientTransform="matrix(1 0 0 -1 0 272.3565)">
		<stop  offset="0" style="stop-color:#3C3C3C"/>
		<stop  offset="1" style="stop-color:#292625"/>
	</linearGradient>
	<path style="fill:url(#SVGID_00000168838991799448005900000004858421306501704834_);" d="M116.3,94.1l-8.6-3.8
		c-1.5-0.7-3,0.7-2.6,2.3l7,24.6c0.1,0.3,0.3,0.5,0.4,0.8l9.6,10.6c1.2,1.4,3.3,0.4,3.3-1.2v-45c0-1.4-2-1.8-2.5-0.4l-4,11.2
		C118.5,94,117.4,94.5,116.3,94.1z"/>
	
		<linearGradient id="SVGID_00000110463523914857606620000012784097557967001015_" gradientUnits="userSpaceOnUse" x1="138.4723" y1="197.1543" x2="138.4723" y2="143.95" gradientTransform="matrix(1 0 0 -1 0 272.3565)">
		<stop  offset="0" style="stop-color:#3C3C3C"/>
		<stop  offset="1" style="stop-color:#292625"/>
	</linearGradient>
	<path style="fill:url(#SVGID_00000110463523914857606620000012784097557967001015_);" d="M148.5,92.5c0.4-1.5-1.1-2.9-2.6-2.3l0,0
		l-16.5,7.4c-0.7,0.3-1.1,1-1.1,1.8v27.8c0,1.8,2.2,2.6,3.3,1.2l9.6-10.6c0.1-0.3,0.3-0.4,0.4-0.8L148.5,92.5z"/>
	
		<linearGradient id="SVGID_00000050622020110647749210000010184983673715947173_" gradientUnits="userSpaceOnUse" x1="131.2487" y1="197.1543" x2="131.2487" y2="143.95" gradientTransform="matrix(1 0 0 -1 0 272.3565)">
		<stop  offset="0" style="stop-color:#3C3C3C"/>
		<stop  offset="1" style="stop-color:#292625"/>
	</linearGradient>
	<path style="fill:url(#SVGID_00000050622020110647749210000010184983673715947173_);" d="M134.2,91.8l-3.5-10
		c-0.4-1.4-2.5-1-2.5,0.4v11.2c0,1.4,1.4,2.3,2.6,1.8l2.3-1C134.1,93.9,134.5,92.8,134.2,91.8z"/>
</g>
<g>
	
		<linearGradient id="SVGID_00000002352821788246104280000007643209626659937724_" gradientUnits="userSpaceOnUse" x1="347.8276" y1="75.2155" x2="347.8276" y2="22.0113" gradientTransform="matrix(1 0 0 -1 0 272.3565)">
		<stop  offset="0" style="stop-color:#3C3C3C"/>
		<stop  offset="1" style="stop-color:#292625"/>
	</linearGradient>
	<path style="fill:url(#SVGID_00000002352821788246104280000007643209626659937724_);" d="M349,216l-8.6-3.8c-1.5-0.7-3,0.7-2.6,2.3
		l7,24.6c0.1,0.3,0.3,0.5,0.4,0.8l9.6,10.6c1.2,1.4,3.3,0.4,3.3-1.2v-45c0-1.4-2-1.8-2.5-0.4l-4,11.2C351.1,216,349.9,216.5,349,216
		z"/>
	
		<linearGradient id="SVGID_00000167356689887355279410000012108222673886461073_" gradientUnits="userSpaceOnUse" x1="370.953" y1="75.2155" x2="370.953" y2="22.0113" gradientTransform="matrix(1 0 0 -1 0 272.3565)">
		<stop  offset="0" style="stop-color:#3C3C3C"/>
		<stop  offset="1" style="stop-color:#292625"/>
	</linearGradient>
	<path style="fill:url(#SVGID_00000167356689887355279410000012108222673886461073_);" d="M381,214.5c0.4-1.5-1.1-2.9-2.6-2.3l0,0
		l-16.5,7.4c-0.7,0.3-1.1,1-1.1,1.8v27.8c0,1.8,2.2,2.6,3.3,1.2l9.6-10.6c0.1-0.3,0.3-0.4,0.4-0.8L381,214.5z"/>
	
		<linearGradient id="SVGID_00000017476352641200951720000000891740109630853252_" gradientUnits="userSpaceOnUse" x1="363.7658" y1="75.2155" x2="363.7658" y2="22.0113" gradientTransform="matrix(1 0 0 -1 0 272.3565)">
		<stop  offset="0" style="stop-color:#3C3C3C"/>
		<stop  offset="1" style="stop-color:#292625"/>
	</linearGradient>
	<path style="fill:url(#SVGID_00000017476352641200951720000000891740109630853252_);" d="M366.7,213.8l-3.5-10
		c-0.4-1.4-2.5-1-2.5,0.4v11.2c0,1.4,1.4,2.3,2.6,1.8l2.3-1C366.7,215.7,367.1,214.7,366.7,213.8z"/>
</g>
<g>
	
		<linearGradient id="SVGID_00000121253752690666620680000003099523738516242324_" gradientUnits="userSpaceOnUse" x1="270.0612" y1="278.0092" x2="270.0612" y2="224.8048" gradientTransform="matrix(1 0 0 -1 0 272.3565)">
		<stop  offset="0" style="stop-color:#3C3C3C"/>
		<stop  offset="1" style="stop-color:#292625"/>
	</linearGradient>
	<path style="fill:url(#SVGID_00000121253752690666620680000003099523738516242324_);" d="M271.2,13.2l-8.6-3.8
		c-1.5-0.7-3,0.7-2.6,2.3l7,24.6c0.1,0.3,0.3,0.5,0.4,0.8l9.6,10.6c1.2,1.4,3.3,0.4,3.3-1.2v-45c0-1.4-2-1.8-2.5-0.4l-4,11.2
		C273.4,13.1,272.3,13.6,271.2,13.2z"/>
	
		<linearGradient id="SVGID_00000131346260498094172230000001779669777750854529_" gradientUnits="userSpaceOnUse" x1="293.323" y1="278.0092" x2="293.323" y2="224.8048" gradientTransform="matrix(1 0 0 -1 0 272.3565)">
		<stop  offset="0" style="stop-color:#3C3C3C"/>
		<stop  offset="1" style="stop-color:#292625"/>
	</linearGradient>
	<path style="fill:url(#SVGID_00000131346260498094172230000001779669777750854529_);" d="M303.4,11.7c0.4-1.5-1.1-2.9-2.6-2.3l0,0
		l-16.5,7.4c-0.7,0.3-1.1,1-1.1,1.8v27.8c0,1.8,2.2,2.6,3.3,1.2L296,37c0.1-0.3,0.3-0.4,0.4-0.8L303.4,11.7z"/>
</g>
<g>
	
		<linearGradient id="SVGID_00000155143884850264308320000015288643595887081093_" gradientUnits="userSpaceOnUse" x1="579.7627" y1="196.8706" x2="579.7627" y2="143.6664" gradientTransform="matrix(1 0 0 -1 0 272.3565)">
		<stop  offset="0" style="stop-color:#3C3C3C"/>
		<stop  offset="1" style="stop-color:#292625"/>
	</linearGradient>
	<path style="fill:url(#SVGID_00000155143884850264308320000015288643595887081093_);" d="M580.9,94.4l-8.6-3.8
		c-1.5-0.7-3,0.7-2.6,2.3l7,24.6c0.1,0.3,0.3,0.5,0.4,0.8l9.6,10.6c1.2,1.4,3.3,0.4,3.3-1.2v-45c0-1.4-2-1.8-2.5-0.4l-4,11.2
		C583.1,94.3,581.8,94.8,580.9,94.4z"/>
	
		<linearGradient id="SVGID_00000041254303242142387650000015179624395996066983_" gradientUnits="userSpaceOnUse" x1="602.8881" y1="196.8706" x2="602.8881" y2="143.6664" gradientTransform="matrix(1 0 0 -1 0 272.3565)">
		<stop  offset="0" style="stop-color:#3C3C3C"/>
		<stop  offset="1" style="stop-color:#292625"/>
	</linearGradient>
	<path style="fill:url(#SVGID_00000041254303242142387650000015179624395996066983_);" d="M612.9,92.8c0.4-1.5-1.1-2.9-2.6-2.3l0,0
		l-16.5,7.4c-0.7,0.3-1.1,1-1.1,1.8v27.8c0,1.8,2.2,2.6,3.3,1.2l9.6-10.6c0.1-0.3,0.3-0.4,0.4-0.8L612.9,92.8z"/>
	
		<linearGradient id="SVGID_00000103245242525397329730000007496816276046210485_" gradientUnits="userSpaceOnUse" x1="595.7009" y1="196.8706" x2="595.7009" y2="143.6664" gradientTransform="matrix(1 0 0 -1 0 272.3565)">
		<stop  offset="0" style="stop-color:#3C3C3C"/>
		<stop  offset="1" style="stop-color:#292625"/>
	</linearGradient>
	<path style="fill:url(#SVGID_00000103245242525397329730000007496816276046210485_);" d="M598.6,92.1l-3.5-10
		c-0.4-1.4-2.5-1-2.5,0.4v11.2c0,1.4,1.4,2.3,2.6,1.8l2.3-1C598.6,94.1,599,93,598.6,92.1z"/>
</g>
<g>
	
		<linearGradient id="SVGID_00000054242285276457119790000012269564910628363656_" gradientUnits="userSpaceOnUse" x1="656.847" y1="-6.3248" x2="656.847" y2="-59.5291" gradientTransform="matrix(1 0 0 -1 0 272.3565)">
		<stop  offset="0" style="stop-color:#3C3C3C"/>
		<stop  offset="1" style="stop-color:#292625"/>
	</linearGradient>
	<path style="fill:url(#SVGID_00000054242285276457119790000012269564910628363656_);" d="M658,297.6l-8.6-3.8
		c-1.5-0.7-3,0.7-2.6,2.3l7,24.6c0.1,0.3,0.3,0.5,0.4,0.8l9.6,10.6c1.2,1.4,3.3,0.4,3.3-1.2v-45c0-1.4-2-1.8-2.5-0.4l-4,11.2
		C660.2,297.6,659.1,298,658,297.6z"/>
	
		<linearGradient id="SVGID_00000092457353310446894310000003051630841165179069_" gradientUnits="userSpaceOnUse" x1="680.1088" y1="-6.3248" x2="680.1088" y2="-59.5291" gradientTransform="matrix(1 0 0 -1 0 272.3565)">
		<stop  offset="0" style="stop-color:#3C3C3C"/>
		<stop  offset="1" style="stop-color:#292625"/>
	</linearGradient>
	<path style="fill:url(#SVGID_00000092457353310446894310000003051630841165179069_);" d="M690.2,296.1c0.4-1.5-1.1-2.9-2.6-2.3l0,0
		l-16.5,7.4c-0.7,0.3-1.1,1-1.1,1.8v27.8c0,1.8,2.2,2.6,3.3,1.2l9.6-10.6c0.1-0.3,0.3-0.4,0.4-0.8L690.2,296.1z"/>
	
		<linearGradient id="SVGID_00000151542194573470949060000013578744713161077927_" gradientUnits="userSpaceOnUse" x1="672.9125" y1="-6.3248" x2="672.9125" y2="-59.5291" gradientTransform="matrix(1 0 0 -1 0 272.3565)">
		<stop  offset="0" style="stop-color:#3C3C3C"/>
		<stop  offset="1" style="stop-color:#292625"/>
	</linearGradient>
	<path style="fill:url(#SVGID_00000151542194573470949060000013578744713161077927_);" d="M675.8,295.4l-3.5-10
		c-0.4-1.4-2.5-1-2.5,0.4V297c0,1.4,1.4,2.3,2.6,1.8l2.3-1C675.7,297.3,676.3,296.2,675.8,295.4z"/>
</g>
<g>
	
		<linearGradient id="SVGID_00000087389854565025294460000002844381895055621807_" gradientUnits="userSpaceOnUse" x1="811.6978" y1="156.3951" x2="811.6978" y2="103.1908" gradientTransform="matrix(1 0 0 -1 0 272.3565)">
		<stop  offset="0" style="stop-color:#3C3C3C"/>
		<stop  offset="1" style="stop-color:#292625"/>
	</linearGradient>
	<path style="fill:url(#SVGID_00000087389854565025294460000002844381895055621807_);" d="M812.8,134.8l-8.6-3.8
		c-1.5-0.7-3,0.7-2.6,2.3l7,24.6c0.1,0.3,0.3,0.5,0.4,0.8l9.6,10.6c1.2,1.4,3.3,0.4,3.3-1.2v-45.2c0-1.4-2-1.8-2.5-0.4l-4,11.2
		C815,134.8,813.9,135.3,812.8,134.8z"/>
	
		<linearGradient id="SVGID_00000059287751108958930260000000463518538074544275_" gradientUnits="userSpaceOnUse" x1="834.9596" y1="156.3951" x2="834.9596" y2="103.1908" gradientTransform="matrix(1 0 0 -1 0 272.3565)">
		<stop  offset="0" style="stop-color:#3C3C3C"/>
		<stop  offset="1" style="stop-color:#292625"/>
	</linearGradient>
	<path style="fill:url(#SVGID_00000059287751108958930260000000463518538074544275_);" d="M845,133.3c0.4-1.5-1.1-2.9-2.6-2.3l0,0
		l-16.5,7.4c-0.7,0.3-1.1,1-1.1,1.8v27.8c0,1.8,2.2,2.6,3.3,1.2l9.6-10.6c0.1-0.3,0.3-0.4,0.4-0.8L845,133.3z"/>
	
		<linearGradient id="SVGID_00000038408828853447297140000010435582703502082484_" gradientUnits="userSpaceOnUse" x1="827.736" y1="156.3951" x2="827.736" y2="103.1908" gradientTransform="matrix(1 0 0 -1 0 272.3565)">
		<stop  offset="0" style="stop-color:#3C3C3C"/>
		<stop  offset="1" style="stop-color:#292625"/>
	</linearGradient>
	<path style="fill:url(#SVGID_00000038408828853447297140000010435582703502082484_);" d="M830.7,132.6l-3.5-10
		c-0.4-1.4-2.5-1-2.5,0.4v11.2c0,1.4,1.4,2.3,2.6,1.8l2.3-1C830.6,134.5,831,133.6,830.7,132.6z"/>
</g>
<g>
	
		<linearGradient id="SVGID_00000019678808144077396540000016450966452581652128_" gradientUnits="userSpaceOnUse" x1="733.9313" y1="278.0092" x2="733.9313" y2="224.8048" gradientTransform="matrix(1 0 0 -1 0 272.3565)">
		<stop  offset="0" style="stop-color:#3C3C3C"/>
		<stop  offset="1" style="stop-color:#292625"/>
	</linearGradient>
	<path style="fill:url(#SVGID_00000019678808144077396540000016450966452581652128_);" d="M735.1,13.2l-8.6-3.8
		c-1.5-0.7-3,0.7-2.6,2.3l7,24.6c0.1,0.3,0.3,0.5,0.4,0.8l9.6,10.6c1.2,1.4,3.3,0.4,3.3-1.2v-45c0-1.4-2-1.8-2.5-0.4l-4,11.2
		C737.2,13.1,736.1,13.6,735.1,13.2z"/>
	
		<linearGradient id="SVGID_00000088094451639132176010000004966528578911112858_" gradientUnits="userSpaceOnUse" x1="757.1931" y1="278.0092" x2="757.1931" y2="224.8048" gradientTransform="matrix(1 0 0 -1 0 272.3565)">
		<stop  offset="0" style="stop-color:#3C3C3C"/>
		<stop  offset="1" style="stop-color:#292625"/>
	</linearGradient>
	<path style="fill:url(#SVGID_00000088094451639132176010000004966528578911112858_);" d="M767.3,11.7c0.4-1.5-1.1-2.9-2.6-2.3l0,0
		l-16.5,7.4c-0.7,0.3-1.1,1-1.1,1.8v27.8c0,1.8,2.2,2.6,3.3,1.2l9.6-10.6c0.1-0.3,0.3-0.4,0.4-0.8L767.3,11.7z"/>
</g>
<g>
	
		<linearGradient id="SVGID_00000070092044359931593490000000138537592526512566_" gradientUnits="userSpaceOnUse" x1="966.5485" y1="75.1047" x2="966.5485" y2="21.9005" gradientTransform="matrix(1 0 0 -1 0 272.3565)">
		<stop  offset="0" style="stop-color:#3C3C3C"/>
		<stop  offset="1" style="stop-color:#292625"/>
	</linearGradient>
	<path style="fill:url(#SVGID_00000070092044359931593490000000138537592526512566_);" d="M967.7,216.1l-8.6-3.8
		c-1.5-0.7-3,0.7-2.6,2.3l7,24.6c0.1,0.3,0.3,0.5,0.4,0.8l9.6,10.6c1.2,1.4,3.3,0.4,3.3-1.2v-45c0-1.4-2-1.8-2.5-0.4l-4,11.2
		C969.9,216.1,968.6,216.5,967.7,216.1z"/>
	
		<linearGradient id="SVGID_00000140726203772841844460000000173150782860937621_" gradientUnits="userSpaceOnUse" x1="989.674" y1="75.1047" x2="989.674" y2="21.9005" gradientTransform="matrix(1 0 0 -1 0 272.3565)">
		<stop  offset="0" style="stop-color:#3C3C3C"/>
		<stop  offset="1" style="stop-color:#292625"/>
	</linearGradient>
	<path style="fill:url(#SVGID_00000140726203772841844460000000173150782860937621_);" d="M999.7,214.6c0.4-1.5-1.1-2.9-2.6-2.3l0,0
		l-16.5,7.4c-0.7,0.3-1.1,1-1.1,1.8v27.8c0,1.8,2.2,2.6,3.3,1.2l9.6-10.6c0.1-0.3,0.3-0.4,0.4-0.8L999.7,214.6z"/>
	
		<linearGradient id="SVGID_00000147196109023211330160000016984186845989766835_" gradientUnits="userSpaceOnUse" x1="982.5868" y1="75.1047" x2="982.5868" y2="21.9005" gradientTransform="matrix(1 0 0 -1 0 272.3565)">
		<stop  offset="0" style="stop-color:#3C3C3C"/>
		<stop  offset="1" style="stop-color:#292625"/>
	</linearGradient>
	<path style="fill:url(#SVGID_00000147196109023211330160000016984186845989766835_);" d="M985.5,213.9l-3.5-10
		c-0.4-1.4-2.5-1-2.5,0.4v11.2c0,1.4,1.4,2.3,2.6,1.8l2.3-1C985.4,215.8,985.8,214.9,985.5,213.9z"/>
</g>
<g>
	
		<linearGradient id="SVGID_00000166651127107766329620000011639960605109698701_" gradientUnits="userSpaceOnUse" x1="115.3468" y1="34.3169" x2="115.3468" y2="-18.8874" gradientTransform="matrix(1 0 0 -1 0 272.3565)">
		<stop  offset="0" style="stop-color:#3C3C3C"/>
		<stop  offset="1" style="stop-color:#292625"/>
	</linearGradient>
	<path style="fill:url(#SVGID_00000166651127107766329620000011639960605109698701_);" d="M116.5,256.9l-8.6-3.8
		c-1.5-0.7-3,0.7-2.6,2.3l7,24.6c0.1,0.3,0.3,0.5,0.4,0.8l9.6,10.6c1.2,1.4,3.3,0.4,3.3-1.2v-45c0-1.4-2-1.8-2.5-0.4l-4,11.2
		C118.7,256.9,117.4,257.3,116.5,256.9z"/>
	
		<linearGradient id="SVGID_00000060730870048963421120000006322320822735491976_" gradientUnits="userSpaceOnUse" x1="138.4723" y1="34.3169" x2="138.4723" y2="-18.8874" gradientTransform="matrix(1 0 0 -1 0 272.3565)">
		<stop  offset="0" style="stop-color:#3C3C3C"/>
		<stop  offset="1" style="stop-color:#292625"/>
	</linearGradient>
	<path style="fill:url(#SVGID_00000060730870048963421120000006322320822735491976_);" d="M148.5,255.4c0.4-1.5-1.1-2.9-2.6-2.3l0,0
		l-16.5,7.4c-0.7,0.3-1.1,1-1.1,1.8v27.8c0,1.8,2.2,2.6,3.3,1.2l9.6-10.6c0.1-0.3,0.3-0.4,0.4-0.8L148.5,255.4z"/>
	
		<linearGradient id="SVGID_00000051343557088910776870000002573282116534490013_" gradientUnits="userSpaceOnUse" x1="131.2759" y1="34.3169" x2="131.2759" y2="-18.8874" gradientTransform="matrix(1 0 0 -1 0 272.3565)">
		<stop  offset="0" style="stop-color:#3C3C3C"/>
		<stop  offset="1" style="stop-color:#292625"/>
	</linearGradient>
	<path style="fill:url(#SVGID_00000051343557088910776870000002573282116534490013_);" d="M134.2,254.7l-3.5-10
		c-0.4-1.4-2.5-1-2.5,0.4v11.2c0,1.4,1.4,2.3,2.6,1.8l2.3-1C134.1,256.6,134.6,255.7,134.2,254.7z"/>
</g>
</svg>
