<?xml version="1.0" encoding="UTF-8"?><svg id="Livello_2" xmlns="http://www.w3.org/2000/svg" viewBox="0 0 963.78 660.24"><defs><style>.cls-1{fill:#142d66;}.cls-1,.cls-2{stroke-width:0px;}.cls-2{fill:#0086ca;}</style></defs><path class="cls-2" d="m285.43,278.57c-28.68,0-51.93,23.24-51.93,51.93s23.25,51.92,51.93,51.92,51.93-23.24,51.93-51.92-23.25-51.93-51.93-51.93"/><path class="cls-1" d="m963.58,65.57C961.53,28.8,931.08,0,894.28,0h-271.11C486.63,0,476.02,252.77,476.02,330.8s9.09,146.66,25.58,202.56c30.97,104.87,83.21,126.89,121.57,126.89h340.61V67.6l-.2-2.03Zm-139.3,455.66h-179.61l-1.29-2.99c-13.07-29.97-28.33-94.74-28.33-187.44s15.26-158.82,28.33-188.8l1.29-2.99h179.61v382.21Z"/><path class="cls-1" d="m356.43,0h-209.85C10.58,0,0,253.57,0,331.29s9.06,146.89,25.49,202.57c30.84,104.46,82.87,126.38,121.09,126.38h209.85c38.17,0,69.23-31.06,69.23-69.23s-31.06-69.23-69.23-69.23h-188.45l-1.3-2.98c-13-29.86-28.21-95.17-28.21-187.5s15.2-159.99,28.21-189.86l1.3-2.97h188.45c38.17,0,69.23-31.06,69.23-69.23S394.61,0,356.43,0"/></svg>